#N canvas 52 193 1209 724 10;
#X obj 105 104 cnv 15 190 190 empty empty MIX-OUT 5 28 1 14 -233017
-66577 0;
#X obj 176 134 knob 48 48 0 127 0 1 empty empty MASTER 0 -8 1 8 2.49614e+08
1 2.49614e+08 37 1;
#X obj 110 194 knob 32 32 0 127 0 1 empty empty PAN1 0 -8 1 8 2.49613e+08
1 2.49614e+08 24 1;
#X obj 148 195 knob 32 32 0 127 0 1 empty empty PAN2 0 -8 1 8 2.49613e+08
1 2.49614e+08 24 1;
#X obj 106 247 knob 32 32 0 127 0 1 empty empty IN1 0 -8 1 8 2.49613e+08
1 2.49614e+08 24 1;
#X obj 148 247 knob 32 32 0 127 0 1 empty empty IN2 0 -8 1 8 2.49613e+08
1 2.49614e+08 24 1;
#X obj 218 247 knob 32 32 0 127 0 1 empty empty IN3 0 -8 1 8 2.49613e+08
1 2.49614e+08 24 1;
#X obj 260 247 knob 32 32 0 127 0 1 empty empty IN4 0 -8 1 8 2.49613e+08
1 2.49614e+08 24 1;
#X obj 219 195 knob 32 32 0 127 0 1 empty empty PAN3 0 -8 1 8 2.49613e+08
1 2.49614e+08 24 1;
#X obj 261 195 knob 32 32 0 127 0 1 empty empty PAN4 0 -8 1 8 2.49613e+08
1 2.49614e+08 24 1;
#X obj 187 200 vu 10 80 empty empty -1 -8 0 10 -66577 -1 0 0;
#X obj 200 200 vu 10 80 empty empty -1 -8 0 10 -66577 -1 0 0;
#X obj 336 219 inlet~;
#X obj 336 354 *~;
#X obj 371 272 / 127;
#X obj 371 321 line~;
#X msg 371 296 \$1 100;
#X obj 483 214 inlet~;
#X obj 483 349 *~;
#X obj 518 267 / 127;
#X obj 518 316 line~;
#X msg 518 291 \$1 100;
#X obj 653 207 inlet~;
#X obj 653 342 *~;
#X obj 688 260 / 127;
#X obj 688 309 line~;
#X msg 688 284 \$1 100;
#X obj 910 342 *~;
#X obj 945 260 / 127;
#X obj 945 309 line~;
#X msg 945 284 \$1 100;
#X obj 909 210 inlet~;
#X obj 451 596 *~;
#X obj 495 485 / 127;
#X obj 495 553 line~;
#X msg 495 528 \$1 100;
#X obj 549 594 *~;
#N canvas 443 58 447 424 channel-one 0;
#X obj 262 274 *~;
#X obj 98 273 *~;
#X obj 277 150 / 127;
#X obj 277 199 line~;
#X msg 277 174 \$1 10;
#X obj 113 197 / 127;
#X obj 113 246 line~;
#X msg 113 221 \$1 10;
#X msg 113 148 127 \$1;
#X obj 113 173 -;
#X obj 98 35 inlet~;
#X obj 262 34 inlet~;
#X obj 113 108 inlet;
#X obj 277 108 inlet;
#X obj 98 330 outlet~;
#X obj 262 332 outlet~;
#X connect 0 0 15 0;
#X connect 1 0 14 0;
#X connect 2 0 4 0;
#X connect 3 0 0 1;
#X connect 4 0 3 0;
#X connect 5 0 7 0;
#X connect 6 0 1 1;
#X connect 7 0 6 0;
#X connect 8 0 9 0;
#X connect 9 0 5 0;
#X connect 10 0 1 0;
#X connect 11 0 0 0;
#X connect 12 0 8 0;
#X connect 13 0 2 0;
#X restore 318 451 pd channel-one;
#N canvas 150 111 447 424 channel-two 0;
#X obj 262 274 *~;
#X obj 98 273 *~;
#X obj 277 150 / 127;
#X obj 277 199 line~;
#X msg 277 174 \$1 10;
#X obj 113 197 / 127;
#X obj 113 246 line~;
#X msg 113 221 \$1 10;
#X msg 113 148 127 \$1;
#X obj 113 173 -;
#X obj 98 35 inlet~;
#X obj 262 34 inlet~;
#X obj 113 108 inlet;
#X obj 277 108 inlet;
#X obj 98 330 outlet~;
#X obj 262 332 outlet~;
#X connect 0 0 15 0;
#X connect 1 0 14 0;
#X connect 2 0 4 0;
#X connect 3 0 0 1;
#X connect 4 0 3 0;
#X connect 5 0 7 0;
#X connect 6 0 1 1;
#X connect 7 0 6 0;
#X connect 8 0 9 0;
#X connect 9 0 5 0;
#X connect 10 0 1 0;
#X connect 11 0 0 0;
#X connect 12 0 8 0;
#X connect 13 0 2 0;
#X restore 462 449 pd channel-two;
#X obj 394 613 env~;
#X obj 394 643 - 96;
#X obj 584 611 env~;
#X obj 584 641 - 96;
#N canvas 150 111 447 424 channel-three 0;
#X obj 262 274 *~;
#X obj 98 273 *~;
#X obj 277 150 / 127;
#X obj 277 199 line~;
#X msg 277 174 \$1 10;
#X obj 113 197 / 127;
#X obj 113 246 line~;
#X msg 113 221 \$1 10;
#X msg 113 148 127 \$1;
#X obj 113 173 -;
#X obj 98 35 inlet~;
#X obj 262 34 inlet~;
#X obj 113 108 inlet;
#X obj 277 108 inlet;
#X obj 98 330 outlet~;
#X obj 262 332 outlet~;
#X connect 0 0 15 0;
#X connect 1 0 14 0;
#X connect 2 0 4 0;
#X connect 3 0 0 1;
#X connect 4 0 3 0;
#X connect 5 0 7 0;
#X connect 6 0 1 1;
#X connect 7 0 6 0;
#X connect 8 0 9 0;
#X connect 9 0 5 0;
#X connect 10 0 1 0;
#X connect 11 0 0 0;
#X connect 12 0 8 0;
#X connect 13 0 2 0;
#X restore 653 449 pd channel-three;
#N canvas 150 111 447 424 channel-four 0;
#X obj 262 274 *~;
#X obj 98 273 *~;
#X obj 277 150 / 127;
#X obj 277 199 line~;
#X msg 277 174 \$1 10;
#X obj 113 197 / 127;
#X obj 113 246 line~;
#X msg 113 221 \$1 10;
#X msg 113 148 127 \$1;
#X obj 113 173 -;
#X obj 98 35 inlet~;
#X obj 262 34 inlet~;
#X obj 113 108 inlet;
#X obj 277 108 inlet;
#X obj 98 330 outlet~;
#X obj 262 332 outlet~;
#X connect 0 0 15 0;
#X connect 1 0 14 0;
#X connect 2 0 4 0;
#X connect 3 0 0 1;
#X connect 4 0 3 0;
#X connect 5 0 7 0;
#X connect 6 0 1 1;
#X connect 7 0 6 0;
#X connect 8 0 9 0;
#X connect 9 0 5 0;
#X connect 10 0 1 0;
#X connect 11 0 0 0;
#X connect 12 0 8 0;
#X connect 13 0 2 0;
#X restore 933 451 pd channel-four;
#X obj 389 39 inlet~;
#X text 332 200 IN 1;
#X text 392 19 PAN 1;
#X obj 389 106 snapshot~;
#X obj 452 89 metro 1;
#X obj 452 69 tgl 15 0 empty empty empty 17 7 0 10 -262144 -1 -1 1
1;
#X obj 452 45 loadbang;
#X obj 388 132 t b f;
#X obj 345 421 +;
#X obj 399 420 +;
#X obj 389 75 *~ 127;
#X obj 537 46 inlet~;
#X obj 537 113 snapshot~;
#X obj 600 96 metro 1;
#X obj 600 76 tgl 15 0 empty empty empty 17 7 0 10 -262144 -1 -1 1
1;
#X obj 600 52 loadbang;
#X obj 536 139 t b f;
#X obj 537 82 *~ 127;
#X text 540 26 PAN 2;
#X obj 489 425 +;
#X obj 543 424 +;
#X obj 759 60 inlet~;
#X obj 759 127 snapshot~;
#X obj 822 110 metro 1;
#X obj 822 90 tgl 15 0 empty empty empty 17 7 0 10 -262144 -1 -1 1
1;
#X obj 822 66 loadbang;
#X obj 758 153 t b f;
#X obj 759 96 *~ 127;
#X text 762 40 PAN 3;
#X text 484 197 IN 2;
#X text 651 189 IN 3;
#X obj 683 416 +;
#X obj 737 415 +;
#X obj 959 71 inlet~;
#X obj 959 138 snapshot~;
#X obj 1022 121 metro 1;
#X obj 1022 101 tgl 15 0 empty empty empty 17 7 0 10 -262144 -1 -1
1 1;
#X obj 1022 77 loadbang;
#X obj 958 164 t b f;
#X obj 959 107 *~ 127;
#X text 962 51 PAN 4;
#X obj 959 418 +;
#X obj 1013 417 +;
#X obj 495 508 * 0.5;
#X obj 462 707 dac~ 1 2;
#X obj 106 104 cnv 3 10 10 empty empty IN1 0 5 1 7 -228856 -66577 0
;
#X obj 126 104 cnv 3 10 10 empty empty PAN1 0 5 1 7 -228856 -66577
0;
#X obj 155 104 cnv 3 10 10 empty empty IN2 0 5 1 7 -228856 -66577 0
;
#X obj 178 104 cnv 3 10 10 empty empty PAN2 0 5 1 7 -228856 -66577
0;
#X obj 210 104 cnv 3 10 10 empty empty IN3 0 5 1 7 -228856 -66577 0
;
#X obj 232 104 cnv 3 10 10 empty empty PAN3 0 5 1 7 -228856 -66577
0;
#X obj 264 104 cnv 3 10 10 empty empty IN4 0 5 1 7 -228856 -66577 0
;
#X obj 279 104 cnv 3 10 10 empty empty PAN4 0 5 1 7 -228856 -66577
0;
#X connect 1 0 33 0;
#X connect 2 0 53 0;
#X connect 2 0 54 0;
#X connect 3 0 64 0;
#X connect 3 0 65 0;
#X connect 4 0 14 0;
#X connect 5 0 19 0;
#X connect 6 0 24 0;
#X connect 7 0 28 0;
#X connect 8 0 76 0;
#X connect 8 0 77 0;
#X connect 9 0 86 0;
#X connect 9 0 87 0;
#X connect 12 0 13 0;
#X connect 13 0 37 0;
#X connect 13 0 37 2;
#X connect 14 0 16 0;
#X connect 15 0 13 1;
#X connect 16 0 15 0;
#X connect 17 0 18 0;
#X connect 18 0 38 0;
#X connect 18 0 38 2;
#X connect 19 0 21 0;
#X connect 20 0 18 1;
#X connect 21 0 20 0;
#X connect 22 0 23 0;
#X connect 23 0 43 0;
#X connect 23 0 43 2;
#X connect 24 0 26 0;
#X connect 25 0 23 1;
#X connect 26 0 25 0;
#X connect 27 0 44 0;
#X connect 27 0 44 2;
#X connect 28 0 30 0;
#X connect 29 0 27 1;
#X connect 30 0 29 0;
#X connect 31 0 27 0;
#X connect 32 0 39 0;
#X connect 32 0 89 0;
#X connect 33 0 88 0;
#X connect 34 0 32 1;
#X connect 34 0 36 1;
#X connect 35 0 34 0;
#X connect 36 0 41 0;
#X connect 36 0 89 1;
#X connect 37 0 32 0;
#X connect 37 1 36 0;
#X connect 38 0 32 0;
#X connect 38 1 36 0;
#X connect 39 0 40 0;
#X connect 40 0 10 0;
#X connect 41 0 42 0;
#X connect 42 0 11 0;
#X connect 43 0 32 0;
#X connect 43 1 36 0;
#X connect 44 0 32 0;
#X connect 44 1 36 0;
#X connect 45 0 55 0;
#X connect 48 0 52 0;
#X connect 49 0 48 0;
#X connect 50 0 49 0;
#X connect 51 0 50 0;
#X connect 52 0 53 0;
#X connect 52 0 54 0;
#X connect 52 1 53 1;
#X connect 52 1 54 1;
#X connect 53 0 37 1;
#X connect 54 0 37 3;
#X connect 55 0 48 0;
#X connect 56 0 62 0;
#X connect 57 0 61 0;
#X connect 58 0 57 0;
#X connect 59 0 58 0;
#X connect 60 0 59 0;
#X connect 61 0 64 0;
#X connect 61 0 65 0;
#X connect 61 1 64 1;
#X connect 61 1 65 1;
#X connect 62 0 57 0;
#X connect 64 0 38 1;
#X connect 65 0 38 3;
#X connect 66 0 72 0;
#X connect 67 0 71 0;
#X connect 68 0 67 0;
#X connect 69 0 68 0;
#X connect 70 0 69 0;
#X connect 71 0 76 0;
#X connect 71 0 77 0;
#X connect 71 1 76 1;
#X connect 71 1 77 1;
#X connect 72 0 67 0;
#X connect 76 0 43 1;
#X connect 77 0 43 3;
#X connect 78 0 84 0;
#X connect 79 0 83 0;
#X connect 80 0 79 0;
#X connect 81 0 80 0;
#X connect 82 0 81 0;
#X connect 83 0 86 0;
#X connect 83 0 87 0;
#X connect 83 1 86 1;
#X connect 83 1 87 1;
#X connect 84 0 79 0;
#X connect 86 0 44 1;
#X connect 87 0 44 3;
#X connect 88 0 35 0;
#X coords 0 -1 1 1 200 200 2 100 100;
