#N canvas 523 81 1000 672 10;
#X obj 104 104 cnv 15 90 190 empty empty VCO-SINE 10 28 1 14 -233017
-66577 0;
#X obj 223 474 osc~;
#X obj 127 161 knob 48 48 0 127 0 1 empty empty PITCH 0 -8 1 8 -262144
-1 -1 0 1;
#X obj 223 412 mtof~;
#X obj 223 602 outlet~;
#X obj -21 364 sig~;
#X obj 744 231 inlet~;
#X obj 223 441 +~;
#X obj 223 382 +~;
#X obj 159 246 knob 32 32 0 127 0 1 empty empty FM 0 -8 1 8 -262144
-4160 -1 0 1;
#X obj 744 424 *~;
#X obj 759 289 / 127;
#X obj 237 96 inlet~;
#X obj 759 343 line~;
#X msg 759 314 \$1 10;
#X obj 112 246 knob 32 32 0 127 0 1 empty empty FOLD 0 -8 1 8 -262144
-1 -1 0 1;
#X obj -21 338 line;
#X msg -21 316 \$1 10;
#X obj 364 479 +;
#X obj 454 462 t b f;
#N canvas 473 250 722 446 wavefolder-simple-cos 0;
#X obj 202 231 *~;
#X obj 202 299 cos~;
#X obj 261 180 line~;
#X msg 262 152 \$1 10;
#X obj 262 100 line;
#X obj 262 76 pack \$1 10;
#X obj 262 127 / 8;
#X obj 263 285 cos~;
#X obj 263 259 *~ -0.2;
#X obj 202 351 hip~ 1;
#X obj 202 38 inlet~;
#X obj 262 39 inlet;
#X text 143 38 SIGNAL IN;
#X text 299 38 FOLD KNOB IN;
#X obj 202 379 outlet~;
#X connect 0 0 8 0;
#X connect 0 0 1 0;
#X connect 1 0 9 0;
#X connect 2 0 0 1;
#X connect 3 0 2 0;
#X connect 4 0 6 0;
#X connect 5 0 4 0;
#X connect 6 0 3 0;
#X connect 7 0 9 0;
#X connect 8 0 7 0;
#X connect 9 0 14 0;
#X connect 10 0 0 0;
#X connect 11 0 5 0;
#X restore 223 565 pd wavefolder-simple-cos;
#X obj 487 599 outlet~;
#X text 208 621 FOLDED SINE OUT;
#X text 481 620 PURE SINE OUT;
#X obj 237 192 *~ 127;
#X obj 454 85 inlet~;
#X obj 454 123 *~ 127;
#X floatatom 394 195 5 0 0 0 - - -, f 5;
#X obj 454 157 snapshot~;
#X obj 396 140 metro 1;
#X obj 396 114 tgl 15 0 empty empty empty 17 7 0 10 -262144 -1 -1 1
1;
#X obj 396 85 loadbang;
#X text 229 76 1 PITCH CV INPUT;
#X text 452 67 2 FOLD CV INPUT;
#X obj 106 284 cnv 1 10 10 empty empty FOLD 0 5 1 7 -228856 -66577
0;
#X obj 178 284 cnv 1 10 10 empty empty SINE 0 5 1 7 -228856 -66577
0;
#X obj -21 288 - 64;
#X obj -21 240 / 127;
#X obj 744 262 *~ 2000;
#X text 737 210 4 FM IN;
#X obj -21 262 * 160;
#X obj 142 104 cnv 15 10 10 empty empty FOLD 0 5 1 7 -228856 -66577
0;
#X obj 104 104 cnv 5 10 10 empty empty PITCH 0 5 1 7 -228856 -66577
0;
#X obj 184 104 cnv 5 10 10 empty empty FM 0 5 1 7 -228856 -66577 0
;
#X connect 1 0 20 0;
#X connect 1 0 21 0;
#X connect 2 0 37 0;
#X connect 3 0 7 0;
#X connect 5 0 8 0;
#X connect 6 0 38 0;
#X connect 7 0 1 0;
#X connect 8 0 3 0;
#X connect 9 0 11 0;
#X connect 10 0 7 1;
#X connect 11 0 14 0;
#X connect 12 0 24 0;
#X connect 13 0 10 1;
#X connect 14 0 13 0;
#X connect 15 0 18 0;
#X connect 16 0 5 0;
#X connect 17 0 16 0;
#X connect 18 0 20 1;
#X connect 19 0 18 0;
#X connect 19 1 18 1;
#X connect 20 0 4 0;
#X connect 24 0 8 1;
#X connect 25 0 26 0;
#X connect 26 0 28 0;
#X connect 28 0 27 0;
#X connect 28 0 19 0;
#X connect 29 0 28 0;
#X connect 30 0 29 0;
#X connect 31 0 30 0;
#X connect 36 0 17 0;
#X connect 37 0 40 0;
#X connect 38 0 10 0;
#X connect 40 0 36 0;
#X coords 0 -1 1 1 100 200 2 100 100;
